<svg class="Logo" width="256" height="128" fill="none" xmlns="http://www.w3.org/2000/svg" viewBox="0 0 256 128">
  <polygon class="Logo__shape Logo__shape--coral" fill="#FF615A" points="33.8,128 68.4,80.8 61.4,75.4 26.7,122.3 	"></polygon>
  <polygon class="Logo__shape Logo__shape--grape" fill="#FFFFFF" points="152.7,75.1 117.8,122.8 125.1,128 159.7,80.4 	"></polygon>
  <polygon class="Logo__shape Logo__shape--grape" fill="#FFFFFF" points="249.7,128 256,123 189.4,38.6 183,43.6 	"></polygon>
  <polygon class="Logo__shape Logo__shape--coral" fill="#FF615A" points="186.7,128 214.5,93.1 208.2,87.8 180.5,123 	"></polygon>
  <polygon class="Logo__shape Logo__shape--coral" fill="#FF615A" points="228.4,75.6 253.5,43.6 247,38.6 222.3,70.1 	"></polygon>
  <path class="Logo__shape Logo__shape--grape" fill="#FFFFFF" d="M36.9,0C16.5,0,0,16.5,0,36.7c0,20.4,16.5,37,36.9,37c20.1,0,36.7-16.8,36.7-37S56.9,0,36.9,0z M36.9,65.6 c-15.6,0-28.5-13.2-28.5-29.2C8.4,20.6,20.9,8,36.9,8c15.4,0,28.3,12.9,28.3,28.4C65.2,52.4,52.5,65.6,36.9,65.6z"></path>
  <path class="Logo__shape Logo__shape--coral" fill="#FF615A" d="M128.5,0c-20.4,0-37.1,16.5-37.1,36.7c0,20.4,16.6,37,37.1,37c20.1,0,36.7-16.8,36.7-37 C165.2,16.6,148.6,0,128.5,0z M128.5,65.6c-15.6,0-28.6-13.2-28.6-29S112.6,8,128.5,8C144.1,8,157,21.1,157,36.7 S143.8,65.6,128.5,65.6z"></path>
</svg>