<?xml version="1.0" encoding="utf-8"?>
<!-- Generator: Adobe Illustrator 25.0.1, SVG Export Plug-In . SVG Version: 6.00 Build 0)  -->
<svg version="1.1" id="Layer_1" xmlns="http://www.w3.org/2000/svg" xmlns:xlink="http://www.w3.org/1999/xlink" x="0px" y="0px"
	 viewBox="0 0 300 300" style="enable-background:new 0 0 300 300;" xml:space="preserve">
<style type="text/css">
	.st0{fill:#482890;}
	.st1{fill:#E1615A;}
</style>
<g>
	<path class="st0" d="M150.6,202.3c-10.1,0-18.4-8.3-18.4-18.4s8.3-18.4,18.4-18.4c10.1,0,18.4,8.3,18.4,18.4
		S160.8,202.3,150.6,202.3z M150.6,174.8c-5,0-9.1,4.1-9.1,9.1s4.1,9.1,9.1,9.1c5,0,9.1-4.1,9.1-9.1S155.7,174.8,150.6,174.8z"/>
</g>
<g>
	<path class="st1" d="M178.5,236.1h-9.3c0-10.2-8.3-18.6-18.6-18.6s-18.6,8.3-18.6,18.6h-9.3c0-15.4,12.5-27.9,27.9-27.9
		S178.5,220.7,178.5,236.1z"/>
</g>
<g>
	<path class="st0" d="M216.6,146.4h-132V60h132V146.4z M93.9,137.1h113.4V69.3H93.9V137.1z"/>
</g>
<g>
	<g>
		<rect x="114.9" y="80.5" class="st1" width="68.8" height="9.3"/>
	</g>
	<g>
		<rect x="114.9" y="99" class="st1" width="41.7" height="9.3"/>
	</g>
	<g>
		<g>
			<rect x="114.9" y="117.6" class="st1" width="41.7" height="9.3"/>
		</g>
		<g>
			<rect x="164" y="117.6" class="st1" width="22.3" height="9.3"/>
		</g>
	</g>
</g>
</svg>
