<?xml version="1.0" encoding="utf-8"?>
<!-- Generator: Adobe Illustrator 25.0.1, SVG Export Plug-In . SVG Version: 6.00 Build 0)  -->
<svg version="1.1" id="Layer_1" xmlns="http://www.w3.org/2000/svg" xmlns:xlink="http://www.w3.org/1999/xlink" x="0px" y="0px"
	 viewBox="0 0 300 300" style="enable-background:new 0 0 300 300;" xml:space="preserve">
<style type="text/css">
	.st0{fill:#4A2E8D;}
	.st1{fill:#E1615A;}
</style>
<g>
</g>
<g>
	<g>
		<polygon class="st0" points="88.1,117.8 78.1,117.8 78.1,78.8 117.1,78.8 117.1,88.8 88.1,88.8 		"/>
	</g>
	<g>
		<polygon class="st0" points="117.1,221.3 78.1,221.3 78.1,182.2 88.1,182.2 88.1,211.3 117.1,211.3 		"/>
	</g>
	<g>
		<polygon class="st0" points="223.1,117.8 213.1,117.8 213.1,88.8 184.1,88.8 184.1,78.8 223.1,78.8 		"/>
	</g>
	<g>
		<polygon class="st0" points="223.1,221.3 184.1,221.3 184.1,211.3 213.1,211.3 213.1,182.2 223.1,182.2 		"/>
	</g>
</g>
<g>
	<path class="st1" d="M150.6,173.3c-12.8,0-23.3-10.4-23.3-23.3c0-12.8,10.4-23.3,23.3-23.3c12.8,0,23.3,10.4,23.3,23.3
		C173.9,162.9,163.5,173.3,150.6,173.3z M150.6,136.7c-7.3,0-13.3,6-13.3,13.3s6,13.3,13.3,13.3c7.3,0,13.3-6,13.3-13.3
		S158,136.7,150.6,136.7z"/>
</g>
</svg>
